<?xml version="1.0" encoding="UTF-8"?>
<svg xmlns="http://www.w3.org/2000/svg" viewBox="0 0 100 100" role="img" aria-labelledby="asset-title">
  <title id="asset-title">Omarchy Chess classic black rook</title>
  <g><path d="M13 94 C13 90 17 88 23 86 L27 83 H73 L77 86 C83 88 87 90 87 94 V95 H13 Z" fill="#29313b" stroke="#f4f0e6" stroke-width="2.3" stroke-linejoin="round" stroke-linecap="round"/>
<path d="M28 84 C29 79 30 74 35 69 H65 C70 74 71 79 72 84 Z" fill="#29313b" stroke="#f4f0e6" stroke-width="2.3" stroke-linejoin="round" stroke-linecap="round"/>
<path d="M26 70 Q26 67 31 64 H69 Q74 67 74 70 Z" fill="#29313b" stroke="#f4f0e6" stroke-width="2.3" stroke-linejoin="round" stroke-linecap="round"/>
  <path d="M30 64 V31 H36 V24 H44 V31 H50 V24 H58 V31 H64 V24 H72 V64 Z" fill="#29313b" stroke="#f4f0e6" stroke-width="2.3" stroke-linejoin="round" stroke-linecap="round"/>
  <path d="M35 45 H67 M38 56 H64" fill="none" stroke="#657080" stroke-width="1.7" stroke-linecap="round" opacity="0.78"/></g>
</svg>
